<svg version="1.1" id="Layer_1" xmlns="http://www.w3.org/2000/svg" xmlns:xlink="http://www.w3.org/1999/xlink" x="0px" y="0px"
	 width="100%" viewBox="0 0 1024 1024" enable-background="new 0 0 1024 1024" xml:space="preserve">
<path fill="#000000" opacity="1.000000" stroke="none" 
	d="
M465.494934,636.541077 
	C456.952637,640.036926 449.268951,644.664429 440.354645,646.765320 
	C456.978149,612.990723 475.768707,580.651672 492.784241,547.022583 
	C437.789429,558.550293 384.153534,573.998474 329.704926,585.922913 
	C329.455780,585.431396 329.206635,584.939819 328.957489,584.448303 
	C331.918762,579.917114 334.740356,575.287170 337.864380,570.871094 
	C355.654968,545.722961 373.409637,520.552063 390.206909,494.720703 
	C391.466187,492.784180 393.167908,491.140472 394.542511,489.271393 
	C395.106567,488.504333 395.691193,487.517303 395.081268,486.493622 
	C394.333405,485.238373 393.149902,485.423523 391.978729,485.759003 
	C387.975708,486.905640 383.974091,488.057312 379.971130,489.204102 
	C328.604401,503.920105 277.235168,518.627441 225.874054,533.363037 
	C220.275604,534.969299 214.740906,536.798157 209.138931,538.391174 
	C207.661530,538.811279 206.053040,539.877441 204.007721,538.112305 
	C217.558868,521.342773 232.223480,505.450836 244.496613,487.358887 
	C189.939484,499.014038 135.829971,511.121124 81.046852,520.446594 
	C159.679962,490.159088 237.904282,459.029297 317.020111,430.255707 
	C317.417297,430.749390 317.814484,431.243103 318.211670,431.736816 
	C304.372467,451.618011 290.533295,471.499207 276.694122,491.380402 
	C277.039520,491.877136 277.384918,492.373840 277.730316,492.870575 
	C360.908722,456.594330 444.087128,420.318115 527.265564,384.041901 
	C527.585144,384.350372 527.904724,384.658844 528.224304,384.967316 
	C526.501953,388.614319 524.871704,392.308228 523.042480,395.900848 
	C509.145325,423.195862 495.212952,450.473022 481.280334,477.750000 
	C479.538666,481.159729 477.722351,484.531250 475.958649,487.929810 
	C475.160980,489.466827 474.615540,491.151093 475.799255,492.632965 
	C477.063293,494.215332 478.751678,493.573639 480.397430,493.076019 
	C502.537628,486.381775 524.705505,479.778625 546.830933,473.036102 
	C580.744751,462.701172 614.627991,452.266235 648.539856,441.924774 
	C649.855164,441.523682 651.260620,440.439026 653.465515,442.177063 
	C626.849976,477.390930 598.938110,511.640106 572.851746,547.243164 
	C573.302246,547.848511 573.752747,548.453857 574.203247,549.059143 
	C638.861755,527.893188 703.520264,506.727264 768.178833,485.561310 
	C768.526428,486.029907 768.873962,486.498505 769.221558,486.967102 
	C753.433533,504.612549 737.645508,522.257996 721.857422,539.903442 
	C722.236816,540.595154 722.616150,541.286804 722.995483,541.978455 
	C788.226685,529.174805 853.457947,516.371155 919.009888,503.504547 
	C916.701843,507.148010 647.481079,604.343689 641.751831,603.480042 
	C653.335632,583.907532 666.057007,565.344604 676.122314,544.785217 
	C605.295166,574.022400 535.666687,605.434265 465.494934,636.541077 
z"/>
<path fill="#000000" opacity="1.000000" stroke="none" 
	d="
M225.350266,545.013306 
	C236.582626,541.252930 247.850952,539.041443 258.984039,536.291443 
	C287.093933,529.348083 315.179443,522.306091 343.276459,515.310425 
	C345.179169,514.836731 347.069641,514.043518 349.144073,514.843994 
	C349.146912,516.764954 347.498199,516.785461 346.418610,517.172119 
	C308.633148,530.704468 271.868927,546.831055 234.421494,561.219116 
	C226.512390,564.257935 218.544464,567.145569 210.575104,570.023804 
	C209.074768,570.565735 207.228638,571.431152 206.106323,569.458496 
	C205.096588,567.683716 206.324539,566.271362 207.437943,565.016113 
	C213.294449,558.413757 219.178970,551.836182 225.350266,545.013306 
z"/>
<path fill="#000000" opacity="1.000000" stroke="none" 
	d="
M366.906250,600.094238 
	C344.358337,608.478394 322.177551,616.730225 299.826752,625.045349 
	C298.751038,621.259094 300.682587,619.667847 302.188354,618.026001 
	C307.023499,612.753662 312.015533,607.624573 316.823029,602.327759 
	C319.039398,599.885864 322.032623,599.504822 324.892517,598.780396 
	C355.031952,591.146423 385.186646,583.572815 415.329712,575.953186 
	C426.614532,573.100647 437.878754,570.166626 449.155426,567.281738 
	C450.699585,566.886719 452.275879,566.058899 454.601257,568.026428 
	C424.917664,578.187744 396.042572,588.934021 366.906250,600.094238 
z"/>
<path fill="#000000" opacity="1.000000" stroke="none" 
	d="
M556.342773,609.268860 
	C579.987305,598.765747 603.181824,588.167786 627.389648,579.693726 
	C601.540161,601.767883 574.423279,622.091675 546.965149,642.046387 
	C559.854065,628.142456 574.270752,615.919678 588.173340,602.785095 
	C559.404480,612.521423 531.391907,623.840515 503.067261,634.424805 
	C520.234009,625.003113 538.100342,617.181885 556.342773,609.268860 
z"/>
<path fill="#000000" opacity="1.000000" stroke="none" 
	d="
M602.153076,443.047363 
	C609.514465,440.918060 616.488892,438.909882 623.463257,436.901672 
	C623.630493,437.447876 623.797729,437.994049 623.964966,438.540253 
	C582.096436,452.099304 540.537170,466.619171 497.805084,478.178162 
	C512.330627,458.404877 528.776001,440.611847 543.166870,421.123474 
	C543.760559,421.553131 544.354309,421.982819 544.947998,422.412476 
	C536.083740,436.077576 527.219482,449.742676 518.212524,463.627808 
	C521.110535,465.660431 523.502075,464.667297 525.779724,464.015503 
	C549.593445,457.201447 573.820312,451.889404 597.423340,444.309601 
	C598.846313,443.852600 600.317383,443.545349 602.153076,443.047363 
z"/>
<path fill="#000000" opacity="1.000000" stroke="none" 
	d="
M358.274841,439.163544 
	C376.847229,433.371552 394.824432,426.813629 412.775970,420.178436 
	C415.849884,419.042236 418.890594,417.671753 422.234650,417.493439 
	C422.399811,417.907928 422.565002,418.322388 422.730164,418.736877 
	C390.149628,432.073120 357.569122,445.409363 324.988586,458.745636 
	C324.690399,458.274933 324.392212,457.804230 324.094025,457.333527 
	C348.176208,436.955627 373.177704,417.751770 399.050415,398.579468 
	C399.600311,401.795135 397.901581,402.329315 396.866913,403.222412 
	C384.391541,413.990601 371.880524,424.717529 359.393829,435.472687 
	C358.389587,436.337677 357.185486,437.177704 356.628448,438.303528 
	C355.901184,439.773407 357.280701,439.226471 358.274841,439.163544 
z"/>
<path fill="#000000" opacity="1.000000" stroke="none" 
	d="
M647.121460,481.113525 
	C654.190796,473.243011 661.676208,466.250397 667.737976,457.790009 
	C669.636536,459.866333 668.406067,460.908844 667.726440,461.915955 
	C656.184875,479.019379 645.258728,496.514801 634.434143,514.075256 
	C632.890076,516.580139 630.858765,518.380371 627.902222,519.085449 
	C621.829651,520.533508 615.776733,522.063599 609.715698,523.559937 
	C609.444702,523.189087 609.173706,522.818237 608.902710,522.447449 
	C621.562622,508.757721 634.222534,495.068024 647.121460,481.113525 
z"/>
<path fill="#000000" opacity="1.000000" stroke="none" 
	d="
M338.455444,540.477966 
	C342.769104,533.132996 347.236206,526.267822 350.867767,518.986023 
	C353.772766,513.161072 358.640320,512.048950 364.547150,511.714233 
	C351.080536,532.902588 335.436554,552.428528 320.929993,572.778870 
	C320.381714,572.424133 319.833466,572.069336 319.285187,571.714600 
	C325.606201,561.402344 331.927216,551.090149 338.455444,540.477966 
z"/>
<path fill="#000000" opacity="1.000000" stroke="none" 
	d="
M570.300903,416.229431 
	C582.329590,411.274323 593.999695,406.462860 605.669800,401.651398 
	C605.929321,402.157806 606.188904,402.664215 606.448425,403.170624 
	C591.068176,412.967377 576.429382,423.886749 560.585144,433.349792 
	C557.544128,424.188019 560.053345,419.945923 570.300903,416.229431 
z"/>
<path fill="#000000" opacity="1.000000" stroke="none" 
	d="
M705.135986,597.712524 
	C726.373352,592.021729 747.224548,586.344543 768.118591,580.829773 
	C773.183105,579.492981 778.362061,578.283875 784.458557,579.519531 
	C782.570251,581.994080 780.311401,582.452148 778.283569,583.205261 
	C765.276672,588.034973 751.570862,590.036804 738.117249,593.049866 
	C726.917847,595.558105 715.685120,597.917297 704.463989,600.327881 
	C703.517151,600.531311 702.546448,600.623657 701.065063,600.845825 
	C701.711304,598.541138 703.323730,598.263306 705.135986,597.712524 
z"/>
<path fill="#000000" opacity="1.000000" stroke="none" 
	d="
M446.553162,613.536377 
	C444.595795,616.061157 444.690277,619.550476 441.729950,621.088379 
	C440.454163,619.492432 441.429718,618.303162 441.943359,617.173035 
	C449.644012,600.229980 457.370972,583.298706 465.119659,566.377563 
	C467.328979,561.552979 468.570068,560.864990 475.695068,560.919373 
	C466.763580,579.185730 456.072083,595.843750 446.553162,613.536377 
z"/>
<path fill="#000000" opacity="1.000000" stroke="none" 
	d="
M727.936096,412.709839 
	C742.537598,409.886261 756.705505,407.090393 772.029785,404.066315 
	C770.163391,406.754028 768.470825,406.952576 766.962097,407.348206 
	C747.994507,412.322205 729.017639,417.260681 710.041077,422.200439 
	C709.560364,422.325592 709.057983,422.370819 708.563843,422.440247 
	C706.717590,422.699768 704.326233,424.098022 703.770081,420.953308 
	C703.296631,418.275879 705.651978,417.656708 707.559937,417.204651 
	C714.188171,415.634186 720.852112,414.214539 727.936096,412.709839 
z"/>
<path fill="#000000" opacity="1.000000" stroke="none" 
	d="
M255.430832,433.609619 
	C250.094498,434.505768 245.262405,434.821381 240.700516,431.657135 
	C260.328491,427.711334 280.245819,427.090454 300.153381,426.071228 
	C285.624176,430.092285 270.738525,431.729614 255.430832,433.609619 
z"/>
<path fill="#000000" opacity="1.000000" stroke="none" 
	d="
M396.752930,612.723145 
	C400.374237,610.324707 403.618835,607.993774 407.043945,605.968140 
	C408.925751,604.855286 411.336517,603.059692 412.922668,606.334290 
	C414.223480,609.019775 414.629700,611.833740 411.533478,613.807800 
	C410.557373,614.430176 409.536713,615.065430 408.446625,615.413025 
	C401.172638,617.732178 393.878937,619.990112 386.574188,622.210632 
	C386.049957,622.369873 385.387299,622.073792 384.111359,621.893860 
	C387.986786,617.838440 392.698944,616.012146 396.752930,612.723145 
z"/>
<path fill="#000000" opacity="1.000000" stroke="none" 
	d="
M28.314186,578.243774 
	C40.389416,572.575562 52.117737,567.052979 64.576561,563.250183 
	C50.037708,572.845825 34.427818,580.096863 17.831886,585.293579 
	C19.830027,580.726135 24.514721,580.531738 28.314186,578.243774 
z"/>
<path fill="#000000" opacity="1.000000" stroke="none" 
	d="
M784.604492,505.826202 
	C791.098450,505.778381 797.154541,505.778381 803.210632,505.778381 
	C803.328552,506.447357 803.446472,507.116333 803.564331,507.785309 
	C792.287476,510.671631 781.021606,513.595825 769.567871,516.403320 
	C774.093018,512.220581 778.485107,508.148529 784.604492,505.826202 
z"/>
<path fill="#000000" opacity="1.000000" stroke="none" 
	d="
M822.070190,556.836243 
	C825.617859,557.286621 828.864014,554.889832 832.076782,558.213379 
	C818.956360,560.636536 805.835938,563.059753 791.842224,565.644287 
	C794.301147,562.022705 794.295837,561.995422 806.483032,559.612000 
	C811.519226,558.627014 816.583740,557.786865 822.070190,556.836243 
z"/>
<path fill="#000000" opacity="1.000000" stroke="none" 
	d="
M166.625458,536.459473 
	C169.838120,535.417969 172.414536,533.235413 175.869553,534.001770 
	C171.393600,542.113220 164.732895,545.597473 155.937668,544.142090 
	C158.568771,540.100220 162.868408,538.922302 166.625458,536.459473 
z"/>
<path fill="#000000" opacity="1.000000" stroke="none" 
	d="
M133.353302,428.666260 
	C143.240067,430.034119 152.918121,429.578033 162.205429,432.465210 
	C150.052109,434.016388 138.106430,432.835571 125.540291,429.910675 
	C128.211121,427.023895 130.728256,429.035217 133.353302,428.666260 
z"/>
<path fill="#000000" opacity="1.000000" stroke="none" 
	d="
M340.466248,624.667603 
	C339.703491,622.643860 341.121033,622.483032 342.189545,622.385315 
	C348.612457,621.797913 355.042908,621.288208 361.475189,620.811707 
	C362.614838,620.727295 363.857971,620.761047 364.597900,623.319702 
	C356.823425,626.547180 348.705505,624.991150 340.466248,624.667603 
z"/>
<path fill="#000000" opacity="1.000000" stroke="none" 
	d="
M923.909180,524.274231 
	C922.641479,523.544434 921.356079,523.403442 920.477234,521.171265 
	C929.793091,520.649719 938.683777,520.152039 947.574463,519.654297 
	C947.630920,520.235840 947.687439,520.817444 947.743958,521.398987 
	C940.043762,523.212219 932.307190,524.796631 923.909180,524.274231 
z"/>
<path fill="#000000" opacity="1.000000" stroke="none" 
	d="
M234.721466,620.015503 
	C235.945984,619.674683 236.855881,619.466614 237.765793,619.258484 
	C231.845123,624.268433 225.764008,628.677917 217.973892,629.804077 
	C221.943512,624.003906 228.743698,623.039429 234.721466,620.015503 
z"/>
<path fill="#000000" opacity="1.000000" stroke="none" 
	d="
M771.364990,430.373505 
	C766.748047,431.106903 762.577881,432.835968 758.105103,431.278717 
	C763.716125,428.627258 769.641235,427.780579 776.332092,427.478271 
	C775.323181,430.444794 773.319946,430.022095 771.364990,430.373505 
z"/>
<path fill="#000000" opacity="1.000000" stroke="none" 
	d="
M267.192596,593.696594 
	C265.459106,593.443237 265.227478,592.412659 266.129608,591.638855 
	C268.444763,589.653015 270.519073,587.179749 274.642212,586.459473 
	C274.362823,591.554321 270.598145,592.284180 267.192596,593.696594 
z"/>
</svg>